# xmcd
#
# Track frame offsets:
#	150
#	15302
#	25202
#	36842
#	47841
#	56273
#	67628
#	79643
#	92046
#	101413
#	114121
#	128425
#
# Disc length: 1862 seconds
#
# Revision: 0
# Processed by: cddbd v1.5.2PL0 Copyright (c) Steve Scherf et al.
# Submitted via: audiograbber 1.83.01
#
DISCID=7b07440c
DTITLE=JOSE ALFREDO JIMENEZ - EXITOS
DYEAR=1900
DGENRE=KARAOKE
TTITLE0=TU RECUERDO Y YO
TTITLE1=CUANDO EL DESTINO
TTITLE2=QUE SUERTE LA MIA
TTITLE3=PARA MORIR IGUALES
TTITLE4=LA ENORME DISTANCIA
TTITLE5=CUATRO CAMINOS
TTITLE6=TU ENAMORADO
TTITLE7=GUITARRAS DE MEDIA NOCHE
TTITLE8=PALABRA DE HOMBRE
TTITLE9=ARRULLO DE DIOS
TTITLE10=TU Y LAS NUBES
TTITLE11=ESTA NOCHE
EXTD=
EXTT0=
EXTT1=
EXTT2=
EXTT3=
EXTT4=
EXTT5=
EXTT6=
EXTT7=
EXTT8=
EXTT9=
EXTT10=
EXTT11=
PLAYORDER=
